<mxfile host="app.diagrams.net" agent="Mozilla/5.0 (Windows NT 10.0; Win64; x64) AppleWebKit/537.36 (KHTML, like Gecko) Chrome/130.0.0.0 Safari/537.36" version="24.8.1">
  <diagram name="PÃ¡gina-1" id="oN9M64Fjvh3GVsj9cSb1">
    <mxGraphModel dx="2048" dy="725" grid="1" gridSize="10" guides="1" tooltips="1" connect="1" arrows="1" fold="1" page="1" pageScale="1" pageWidth="827" pageHeight="1169" math="0" shadow="0">
      <root>
        <mxCell id="0" />
        <mxCell id="1" parent="0" />
        <mxCell id="m8iBF4g-bxJaC_wD1IKI-1" value="PACIENTES" style="rounded=0;whiteSpace=wrap;html=1;" vertex="1" parent="1">
          <mxGeometry x="155" y="538" width="120" height="60" as="geometry" />
        </mxCell>
        <mxCell id="m8iBF4g-bxJaC_wD1IKI-2" value="DOCTORES" style="rounded=0;whiteSpace=wrap;html=1;" vertex="1" parent="1">
          <mxGeometry x="155" y="120" width="120" height="60" as="geometry" />
        </mxCell>
        <mxCell id="m8iBF4g-bxJaC_wD1IKI-3" value="HISTORIAS_CLINCIAS" style="rounded=0;whiteSpace=wrap;html=1;" vertex="1" parent="1">
          <mxGeometry x="635" y="538" width="160" height="60" as="geometry" />
        </mxCell>
        <mxCell id="m8iBF4g-bxJaC_wD1IKI-5" value="Consultar" style="rhombus;whiteSpace=wrap;html=1;" vertex="1" parent="1">
          <mxGeometry x="160" y="314" width="110" height="90" as="geometry" />
        </mxCell>
        <mxCell id="m8iBF4g-bxJaC_wD1IKI-6" value="Contener" style="rhombus;whiteSpace=wrap;html=1;" vertex="1" parent="1">
          <mxGeometry x="402" y="523" width="110" height="90" as="geometry" />
        </mxCell>
        <mxCell id="m8iBF4g-bxJaC_wD1IKI-18" style="edgeStyle=orthogonalEdgeStyle;rounded=0;orthogonalLoop=1;jettySize=auto;html=1;exitX=0;exitY=0.5;exitDx=0;exitDy=0;entryX=1;entryY=0.5;entryDx=0;entryDy=0;" edge="1" parent="1" source="m8iBF4g-bxJaC_wD1IKI-11" target="m8iBF4g-bxJaC_wD1IKI-2">
          <mxGeometry relative="1" as="geometry" />
        </mxCell>
        <mxCell id="m8iBF4g-bxJaC_wD1IKI-11" value="&lt;font style=&quot;font-size: 14px;&quot;&gt;&lt;u&gt;id_doctor&lt;/u&gt;&lt;/font&gt;" style="ellipse;whiteSpace=wrap;html=1;" vertex="1" parent="1">
          <mxGeometry x="353" y="26" width="126" height="35" as="geometry" />
        </mxCell>
        <mxCell id="m8iBF4g-bxJaC_wD1IKI-21" style="edgeStyle=orthogonalEdgeStyle;rounded=0;orthogonalLoop=1;jettySize=auto;html=1;exitX=0;exitY=0.5;exitDx=0;exitDy=0;entryX=1;entryY=0.5;entryDx=0;entryDy=0;" edge="1" parent="1" source="m8iBF4g-bxJaC_wD1IKI-12" target="m8iBF4g-bxJaC_wD1IKI-2">
          <mxGeometry relative="1" as="geometry" />
        </mxCell>
        <mxCell id="m8iBF4g-bxJaC_wD1IKI-12" value="&lt;font style=&quot;font-size: 14px;&quot;&gt;nombre&lt;/font&gt;" style="ellipse;whiteSpace=wrap;html=1;" vertex="1" parent="1">
          <mxGeometry x="353" y="62" width="126" height="35" as="geometry" />
        </mxCell>
        <mxCell id="m8iBF4g-bxJaC_wD1IKI-22" style="edgeStyle=orthogonalEdgeStyle;rounded=0;orthogonalLoop=1;jettySize=auto;html=1;exitX=0;exitY=0.5;exitDx=0;exitDy=0;entryX=1;entryY=0.5;entryDx=0;entryDy=0;" edge="1" parent="1" source="m8iBF4g-bxJaC_wD1IKI-13" target="m8iBF4g-bxJaC_wD1IKI-2">
          <mxGeometry relative="1" as="geometry" />
        </mxCell>
        <mxCell id="m8iBF4g-bxJaC_wD1IKI-13" value="&lt;font style=&quot;font-size: 14px;&quot;&gt;apellido&lt;/font&gt;" style="ellipse;whiteSpace=wrap;html=1;" vertex="1" parent="1">
          <mxGeometry x="353" y="97" width="126" height="35" as="geometry" />
        </mxCell>
        <mxCell id="m8iBF4g-bxJaC_wD1IKI-23" style="edgeStyle=orthogonalEdgeStyle;rounded=0;orthogonalLoop=1;jettySize=auto;html=1;exitX=0;exitY=0.5;exitDx=0;exitDy=0;" edge="1" parent="1" source="m8iBF4g-bxJaC_wD1IKI-14" target="m8iBF4g-bxJaC_wD1IKI-2">
          <mxGeometry relative="1" as="geometry" />
        </mxCell>
        <mxCell id="m8iBF4g-bxJaC_wD1IKI-14" value="&lt;font style=&quot;font-size: 14px;&quot;&gt;password&lt;/font&gt;" style="ellipse;whiteSpace=wrap;html=1;" vertex="1" parent="1">
          <mxGeometry x="353" y="133" width="126" height="35" as="geometry" />
        </mxCell>
        <mxCell id="m8iBF4g-bxJaC_wD1IKI-24" style="edgeStyle=orthogonalEdgeStyle;rounded=0;orthogonalLoop=1;jettySize=auto;html=1;exitX=0;exitY=0.5;exitDx=0;exitDy=0;entryX=1;entryY=0.5;entryDx=0;entryDy=0;" edge="1" parent="1" source="m8iBF4g-bxJaC_wD1IKI-15" target="m8iBF4g-bxJaC_wD1IKI-2">
          <mxGeometry relative="1" as="geometry" />
        </mxCell>
        <mxCell id="m8iBF4g-bxJaC_wD1IKI-15" value="&lt;font style=&quot;font-size: 14px;&quot;&gt;telefono&lt;/font&gt;" style="ellipse;whiteSpace=wrap;html=1;" vertex="1" parent="1">
          <mxGeometry x="353" y="170" width="126" height="35" as="geometry" />
        </mxCell>
        <mxCell id="m8iBF4g-bxJaC_wD1IKI-25" style="edgeStyle=orthogonalEdgeStyle;rounded=0;orthogonalLoop=1;jettySize=auto;html=1;exitX=0;exitY=0.5;exitDx=0;exitDy=0;entryX=1;entryY=0.5;entryDx=0;entryDy=0;" edge="1" parent="1" source="m8iBF4g-bxJaC_wD1IKI-16" target="m8iBF4g-bxJaC_wD1IKI-2">
          <mxGeometry relative="1" as="geometry" />
        </mxCell>
        <mxCell id="m8iBF4g-bxJaC_wD1IKI-16" value="&lt;font style=&quot;font-size: 14px;&quot;&gt;email&lt;/font&gt;" style="ellipse;whiteSpace=wrap;html=1;" vertex="1" parent="1">
          <mxGeometry x="353" y="206" width="126" height="35" as="geometry" />
        </mxCell>
        <mxCell id="m8iBF4g-bxJaC_wD1IKI-26" style="edgeStyle=orthogonalEdgeStyle;rounded=0;orthogonalLoop=1;jettySize=auto;html=1;exitX=0;exitY=0.5;exitDx=0;exitDy=0;entryX=1;entryY=0.5;entryDx=0;entryDy=0;" edge="1" parent="1" source="m8iBF4g-bxJaC_wD1IKI-17" target="m8iBF4g-bxJaC_wD1IKI-2">
          <mxGeometry relative="1" as="geometry" />
        </mxCell>
        <mxCell id="m8iBF4g-bxJaC_wD1IKI-17" value="&lt;span style=&quot;font-size: 14px;&quot;&gt;administrador&lt;/span&gt;" style="ellipse;whiteSpace=wrap;html=1;" vertex="1" parent="1">
          <mxGeometry x="353" y="242" width="126" height="35" as="geometry" />
        </mxCell>
        <mxCell id="m8iBF4g-bxJaC_wD1IKI-34" style="edgeStyle=orthogonalEdgeStyle;rounded=0;orthogonalLoop=1;jettySize=auto;html=1;exitX=1;exitY=0.5;exitDx=0;exitDy=0;entryX=0;entryY=0.5;entryDx=0;entryDy=0;" edge="1" parent="1" source="m8iBF4g-bxJaC_wD1IKI-27" target="m8iBF4g-bxJaC_wD1IKI-1">
          <mxGeometry relative="1" as="geometry" />
        </mxCell>
        <mxCell id="m8iBF4g-bxJaC_wD1IKI-27" value="&lt;font style=&quot;font-size: 14px;&quot;&gt;&lt;u&gt;id_paciente&lt;/u&gt;&lt;/font&gt;" style="ellipse;whiteSpace=wrap;html=1;" vertex="1" parent="1">
          <mxGeometry x="-57" y="442.5" width="126" height="35" as="geometry" />
        </mxCell>
        <mxCell id="m8iBF4g-bxJaC_wD1IKI-35" style="edgeStyle=orthogonalEdgeStyle;rounded=0;orthogonalLoop=1;jettySize=auto;html=1;exitX=1;exitY=0.5;exitDx=0;exitDy=0;entryX=0;entryY=0.5;entryDx=0;entryDy=0;" edge="1" parent="1" source="m8iBF4g-bxJaC_wD1IKI-28" target="m8iBF4g-bxJaC_wD1IKI-1">
          <mxGeometry relative="1" as="geometry" />
        </mxCell>
        <mxCell id="m8iBF4g-bxJaC_wD1IKI-28" value="&lt;font style=&quot;font-size: 14px;&quot;&gt;nombre&lt;/font&gt;" style="ellipse;whiteSpace=wrap;html=1;" vertex="1" parent="1">
          <mxGeometry x="-57" y="478.5" width="126" height="35" as="geometry" />
        </mxCell>
        <mxCell id="m8iBF4g-bxJaC_wD1IKI-36" style="edgeStyle=orthogonalEdgeStyle;rounded=0;orthogonalLoop=1;jettySize=auto;html=1;exitX=1;exitY=0.5;exitDx=0;exitDy=0;" edge="1" parent="1" source="m8iBF4g-bxJaC_wD1IKI-29" target="m8iBF4g-bxJaC_wD1IKI-1">
          <mxGeometry relative="1" as="geometry" />
        </mxCell>
        <mxCell id="m8iBF4g-bxJaC_wD1IKI-29" value="&lt;font style=&quot;font-size: 14px;&quot;&gt;apellido&lt;/font&gt;" style="ellipse;whiteSpace=wrap;html=1;" vertex="1" parent="1">
          <mxGeometry x="-57" y="513.5" width="126" height="35" as="geometry" />
        </mxCell>
        <mxCell id="m8iBF4g-bxJaC_wD1IKI-37" style="edgeStyle=orthogonalEdgeStyle;rounded=0;orthogonalLoop=1;jettySize=auto;html=1;exitX=1;exitY=0.5;exitDx=0;exitDy=0;entryX=0;entryY=0.5;entryDx=0;entryDy=0;" edge="1" parent="1" source="m8iBF4g-bxJaC_wD1IKI-30" target="m8iBF4g-bxJaC_wD1IKI-1">
          <mxGeometry relative="1" as="geometry" />
        </mxCell>
        <mxCell id="m8iBF4g-bxJaC_wD1IKI-30" value="&lt;font style=&quot;font-size: 14px;&quot;&gt;telefono&lt;/font&gt;" style="ellipse;whiteSpace=wrap;html=1;" vertex="1" parent="1">
          <mxGeometry x="-57" y="549.5" width="126" height="35" as="geometry" />
        </mxCell>
        <mxCell id="m8iBF4g-bxJaC_wD1IKI-38" style="edgeStyle=orthogonalEdgeStyle;rounded=0;orthogonalLoop=1;jettySize=auto;html=1;exitX=1;exitY=0.5;exitDx=0;exitDy=0;entryX=0;entryY=0.5;entryDx=0;entryDy=0;" edge="1" parent="1" source="m8iBF4g-bxJaC_wD1IKI-31" target="m8iBF4g-bxJaC_wD1IKI-1">
          <mxGeometry relative="1" as="geometry" />
        </mxCell>
        <mxCell id="m8iBF4g-bxJaC_wD1IKI-31" value="&lt;font style=&quot;font-size: 14px;&quot;&gt;email&lt;/font&gt;" style="ellipse;whiteSpace=wrap;html=1;" vertex="1" parent="1">
          <mxGeometry x="-57" y="586.5" width="126" height="35" as="geometry" />
        </mxCell>
        <mxCell id="m8iBF4g-bxJaC_wD1IKI-40" style="edgeStyle=orthogonalEdgeStyle;rounded=0;orthogonalLoop=1;jettySize=auto;html=1;exitX=1;exitY=0.5;exitDx=0;exitDy=0;entryX=0;entryY=0.5;entryDx=0;entryDy=0;" edge="1" parent="1" source="m8iBF4g-bxJaC_wD1IKI-32" target="m8iBF4g-bxJaC_wD1IKI-1">
          <mxGeometry relative="1" as="geometry" />
        </mxCell>
        <mxCell id="m8iBF4g-bxJaC_wD1IKI-32" value="&lt;font style=&quot;font-size: 14px;&quot;&gt;fecha_nacimiento&lt;/font&gt;" style="ellipse;whiteSpace=wrap;html=1;" vertex="1" parent="1">
          <mxGeometry x="-57" y="622.5" width="126" height="35" as="geometry" />
        </mxCell>
        <mxCell id="m8iBF4g-bxJaC_wD1IKI-52" style="edgeStyle=orthogonalEdgeStyle;rounded=0;orthogonalLoop=1;jettySize=auto;html=1;exitX=0;exitY=0.5;exitDx=0;exitDy=0;entryX=1;entryY=0.5;entryDx=0;entryDy=0;" edge="1" parent="1" source="m8iBF4g-bxJaC_wD1IKI-42" target="m8iBF4g-bxJaC_wD1IKI-3">
          <mxGeometry relative="1" as="geometry">
            <Array as="points">
              <mxPoint x="833" y="406" />
              <mxPoint x="833" y="568" />
            </Array>
          </mxGeometry>
        </mxCell>
        <mxCell id="m8iBF4g-bxJaC_wD1IKI-42" value="&lt;font style=&quot;font-size: 14px;&quot;&gt;&lt;u&gt;id_historia_clinica&lt;/u&gt;&lt;/font&gt;" style="ellipse;whiteSpace=wrap;html=1;" vertex="1" parent="1">
          <mxGeometry x="870" y="388" width="150" height="35" as="geometry" />
        </mxCell>
        <mxCell id="m8iBF4g-bxJaC_wD1IKI-53" style="edgeStyle=orthogonalEdgeStyle;rounded=0;orthogonalLoop=1;jettySize=auto;html=1;exitX=0;exitY=0.5;exitDx=0;exitDy=0;entryX=1;entryY=0.5;entryDx=0;entryDy=0;" edge="1" parent="1" source="m8iBF4g-bxJaC_wD1IKI-43" target="m8iBF4g-bxJaC_wD1IKI-3">
          <mxGeometry relative="1" as="geometry" />
        </mxCell>
        <mxCell id="m8iBF4g-bxJaC_wD1IKI-43" value="&lt;font style=&quot;font-size: 14px;&quot;&gt;motivo_consulta&lt;/font&gt;" style="ellipse;whiteSpace=wrap;html=1;" vertex="1" parent="1">
          <mxGeometry x="872" y="424" width="150" height="35" as="geometry" />
        </mxCell>
        <mxCell id="m8iBF4g-bxJaC_wD1IKI-54" style="edgeStyle=orthogonalEdgeStyle;rounded=0;orthogonalLoop=1;jettySize=auto;html=1;exitX=0;exitY=0.5;exitDx=0;exitDy=0;entryX=1;entryY=0.5;entryDx=0;entryDy=0;" edge="1" parent="1" source="m8iBF4g-bxJaC_wD1IKI-44" target="m8iBF4g-bxJaC_wD1IKI-3">
          <mxGeometry relative="1" as="geometry" />
        </mxCell>
        <mxCell id="m8iBF4g-bxJaC_wD1IKI-44" value="&lt;font style=&quot;font-size: 14px;&quot;&gt;fecha_comsulta&lt;/font&gt;" style="ellipse;whiteSpace=wrap;html=1;" vertex="1" parent="1">
          <mxGeometry x="872" y="459" width="150" height="35" as="geometry" />
        </mxCell>
        <mxCell id="m8iBF4g-bxJaC_wD1IKI-55" style="edgeStyle=orthogonalEdgeStyle;rounded=0;orthogonalLoop=1;jettySize=auto;html=1;exitX=0;exitY=0.5;exitDx=0;exitDy=0;entryX=1;entryY=0.5;entryDx=0;entryDy=0;" edge="1" parent="1" source="m8iBF4g-bxJaC_wD1IKI-45" target="m8iBF4g-bxJaC_wD1IKI-3">
          <mxGeometry relative="1" as="geometry" />
        </mxCell>
        <mxCell id="m8iBF4g-bxJaC_wD1IKI-45" value="&lt;font style=&quot;font-size: 14px;&quot;&gt;historia_familiar&lt;/font&gt;" style="ellipse;whiteSpace=wrap;html=1;" vertex="1" parent="1">
          <mxGeometry x="872" y="495" width="150" height="35" as="geometry" />
        </mxCell>
        <mxCell id="m8iBF4g-bxJaC_wD1IKI-56" style="edgeStyle=orthogonalEdgeStyle;rounded=0;orthogonalLoop=1;jettySize=auto;html=1;exitX=0;exitY=0.5;exitDx=0;exitDy=0;entryX=1;entryY=0.5;entryDx=0;entryDy=0;" edge="1" parent="1" source="m8iBF4g-bxJaC_wD1IKI-46" target="m8iBF4g-bxJaC_wD1IKI-3">
          <mxGeometry relative="1" as="geometry" />
        </mxCell>
        <mxCell id="m8iBF4g-bxJaC_wD1IKI-46" value="&lt;font style=&quot;font-size: 14px;&quot;&gt;alergias&lt;/font&gt;" style="ellipse;whiteSpace=wrap;html=1;" vertex="1" parent="1">
          <mxGeometry x="872" y="532" width="150" height="35" as="geometry" />
        </mxCell>
        <mxCell id="m8iBF4g-bxJaC_wD1IKI-57" style="edgeStyle=orthogonalEdgeStyle;rounded=0;orthogonalLoop=1;jettySize=auto;html=1;exitX=0;exitY=0.5;exitDx=0;exitDy=0;entryX=1;entryY=0.5;entryDx=0;entryDy=0;" edge="1" parent="1" source="m8iBF4g-bxJaC_wD1IKI-47" target="m8iBF4g-bxJaC_wD1IKI-3">
          <mxGeometry relative="1" as="geometry" />
        </mxCell>
        <mxCell id="m8iBF4g-bxJaC_wD1IKI-47" value="&lt;font style=&quot;font-size: 14px;&quot;&gt;diagnostico&lt;/font&gt;" style="ellipse;whiteSpace=wrap;html=1;" vertex="1" parent="1">
          <mxGeometry x="872" y="568" width="150" height="35" as="geometry" />
        </mxCell>
        <mxCell id="m8iBF4g-bxJaC_wD1IKI-58" style="edgeStyle=orthogonalEdgeStyle;rounded=0;orthogonalLoop=1;jettySize=auto;html=1;exitX=0;exitY=0.5;exitDx=0;exitDy=0;entryX=1;entryY=0.5;entryDx=0;entryDy=0;" edge="1" parent="1" source="m8iBF4g-bxJaC_wD1IKI-48" target="m8iBF4g-bxJaC_wD1IKI-3">
          <mxGeometry relative="1" as="geometry" />
        </mxCell>
        <mxCell id="m8iBF4g-bxJaC_wD1IKI-48" value="&lt;span style=&quot;font-size: 14px;&quot;&gt;tratamiento&lt;/span&gt;" style="ellipse;whiteSpace=wrap;html=1;" vertex="1" parent="1">
          <mxGeometry x="872" y="604" width="150" height="35" as="geometry" />
        </mxCell>
        <mxCell id="m8iBF4g-bxJaC_wD1IKI-59" style="edgeStyle=orthogonalEdgeStyle;rounded=0;orthogonalLoop=1;jettySize=auto;html=1;exitX=0;exitY=0.5;exitDx=0;exitDy=0;entryX=1;entryY=0.5;entryDx=0;entryDy=0;" edge="1" parent="1" source="m8iBF4g-bxJaC_wD1IKI-50" target="m8iBF4g-bxJaC_wD1IKI-3">
          <mxGeometry relative="1" as="geometry" />
        </mxCell>
        <mxCell id="m8iBF4g-bxJaC_wD1IKI-50" value="&lt;span style=&quot;font-size: 14px;&quot;&gt;evolucion_clinica&lt;/span&gt;" style="ellipse;whiteSpace=wrap;html=1;" vertex="1" parent="1">
          <mxGeometry x="872" y="639" width="150" height="35" as="geometry" />
        </mxCell>
        <mxCell id="m8iBF4g-bxJaC_wD1IKI-61" value="1:N" style="text;html=1;align=center;verticalAlign=middle;whiteSpace=wrap;rounded=0;fontSize=15;fontStyle=1" vertex="1" parent="1">
          <mxGeometry x="262" y="344" width="60" height="30" as="geometry" />
        </mxCell>
        <mxCell id="m8iBF4g-bxJaC_wD1IKI-62" value="(1:1)" style="text;html=1;align=center;verticalAlign=middle;whiteSpace=wrap;rounded=0;fontSize=15;fontStyle=1" vertex="1" parent="1">
          <mxGeometry x="156" y="180" width="60" height="30" as="geometry" />
        </mxCell>
        <mxCell id="m8iBF4g-bxJaC_wD1IKI-63" value="(1:N)" style="text;html=1;align=center;verticalAlign=middle;whiteSpace=wrap;rounded=0;fontSize=15;fontStyle=1" vertex="1" parent="1">
          <mxGeometry x="219" y="510" width="60" height="30" as="geometry" />
        </mxCell>
        <mxCell id="m8iBF4g-bxJaC_wD1IKI-64" value="(1:N)" style="text;html=1;align=center;verticalAlign=middle;whiteSpace=wrap;rounded=0;fontSize=15;fontStyle=1" vertex="1" parent="1">
          <mxGeometry x="580" y="531" width="60" height="30" as="geometry" />
        </mxCell>
        <mxCell id="m8iBF4g-bxJaC_wD1IKI-65" value="1:N" style="text;html=1;align=center;verticalAlign=middle;whiteSpace=wrap;rounded=0;fontSize=15;fontStyle=1" vertex="1" parent="1">
          <mxGeometry x="427" y="483.5" width="60" height="30" as="geometry" />
        </mxCell>
        <mxCell id="m8iBF4g-bxJaC_wD1IKI-67" value="" style="endArrow=none;html=1;rounded=0;exitX=0.5;exitY=0;exitDx=0;exitDy=0;entryX=1;entryY=0;entryDx=0;entryDy=0;" edge="1" parent="1" target="m8iBF4g-bxJaC_wD1IKI-62">
          <mxGeometry width="50" height="50" relative="1" as="geometry">
            <mxPoint x="215" y="314" as="sourcePoint" />
            <mxPoint x="220" y="180" as="targetPoint" />
          </mxGeometry>
        </mxCell>
        <mxCell id="m8iBF4g-bxJaC_wD1IKI-69" value="" style="endArrow=none;html=1;rounded=0;exitX=0.5;exitY=0;exitDx=0;exitDy=0;entryX=0.5;entryY=1;entryDx=0;entryDy=0;" edge="1" parent="1" source="m8iBF4g-bxJaC_wD1IKI-1" target="m8iBF4g-bxJaC_wD1IKI-5">
          <mxGeometry width="50" height="50" relative="1" as="geometry">
            <mxPoint x="166" y="454" as="sourcePoint" />
            <mxPoint x="210" y="410" as="targetPoint" />
          </mxGeometry>
        </mxCell>
        <mxCell id="m8iBF4g-bxJaC_wD1IKI-70" value="" style="endArrow=none;html=1;rounded=0;entryX=0;entryY=0.5;entryDx=0;entryDy=0;exitX=1;exitY=0.5;exitDx=0;exitDy=0;" edge="1" parent="1" source="m8iBF4g-bxJaC_wD1IKI-1" target="m8iBF4g-bxJaC_wD1IKI-6">
          <mxGeometry width="50" height="50" relative="1" as="geometry">
            <mxPoint x="275" y="567" as="sourcePoint" />
            <mxPoint x="325" y="517" as="targetPoint" />
          </mxGeometry>
        </mxCell>
        <mxCell id="m8iBF4g-bxJaC_wD1IKI-71" value="" style="endArrow=none;html=1;rounded=0;entryX=0;entryY=0.5;entryDx=0;entryDy=0;exitX=1;exitY=0.5;exitDx=0;exitDy=0;" edge="1" parent="1" source="m8iBF4g-bxJaC_wD1IKI-6" target="m8iBF4g-bxJaC_wD1IKI-3">
          <mxGeometry width="50" height="50" relative="1" as="geometry">
            <mxPoint x="512" y="567" as="sourcePoint" />
            <mxPoint x="562" y="517" as="targetPoint" />
          </mxGeometry>
        </mxCell>
        <mxCell id="m8iBF4g-bxJaC_wD1IKI-72" value="(1:1)" style="text;html=1;align=center;verticalAlign=middle;whiteSpace=wrap;rounded=0;fontSize=15;fontStyle=1" vertex="1" parent="1">
          <mxGeometry x="271" y="566" width="60" height="30" as="geometry" />
        </mxCell>
      </root>
    </mxGraphModel>
  </diagram>
</mxfile>
